<svg xmlns="http://www.w3.org/2000/svg" viewBox="0 0 512 512" id="currency-conversion">
  <path d="M282.517 218.877a7.5 7.5 0 1 0 10.606 0 7.508 7.508 0 0 0-10.606 0ZM408.5 317.15V306.92a7.5 7.5 0 0 0-15 0v9.905h-15v-9.905a7.5 7.5 0 0 0-15 0v9.905h-20.76a7.5 7.5 0 0 0 0 15h5.794v103.352h-5.795a7.5 7.5 0 0 0 0 15H363.5v9.905a7.5 7.5 0 0 0 15 0v-9.905h15v9.905a7.5 7.5 0 0 0 15 0V449.85a27.543 27.543 0 0 0 23.26-27.173V403.5a27.42 27.42 0 0 0-8.654-20 27.42 27.42 0 0 0 8.655-20v-19.176A27.543 27.543 0 0 0 408.5 317.15Zm8.26 105.525a12.514 12.514 0 0 1-12.5 12.5h-40.726V391h40.727a12.514 12.514 0 0 1 12.5 12.5Zm0-59.176a12.514 12.514 0 0 1-12.5 12.5h-40.726v-44.176h40.727a12.514 12.514 0 0 1 12.5 12.5ZM133.032 180.172h-8.645a22.5 22.5 0 0 1-22.5-22.5 7.5 7.5 0 0 0-15 0A37.494 37.494 0 0 0 121 195.017v10.065a7.5 7.5 0 0 0 15 0v-10.039a37.082 37.082 0 0 0-2.969-74.045l-9.067-.001a22.086 22.086 0 0 1 .01-44.172h8.64a22.526 22.526 0 0 1 22.5 22.5 7.5 7.5 0 0 0 15 0A37.546 37.546 0 0 0 136 61.984V51.919a7.5 7.5 0 1 0-15 0v10.035a37.08 37.08 0 0 0 2.962 74.042l9.066.001a22.087 22.087 0 0 1 .003 44.175ZM255.25 37.11a153.215 153.215 0 0 1 142.54 126.865l-29.025 3.564a12.212 12.212 0 0 0-6.03 21.743l72.713 56.81a12.116 12.116 0 0 0 7.493 2.59 12.443 12.443 0 0 0 1.514-.092 12.13 12.13 0 0 0 8.134-4.602l56.81-72.714a12.211 12.211 0 0 0-11.111-19.638l-29.478 3.62A168.16 168.16 0 0 0 282.49 16.27a169.696 169.696 0 0 0-29.042 6.181 7.5 7.5 0 0 0 1.8 14.66Zm140.422 24.137a152.288 152.288 0 0 1 58.734 98.94 12.13 12.13 0 0 0 13.554 10.285l25.475-3.127-50.95 65.21-65.21-50.949 25.213-3.095a12.22 12.22 0 0 0 10.59-13.973l.001.001A168.163 168.163 0 0 0 298.625 30.066a152.228 152.228 0 0 1 97.046 31.181Zm-144.974 189.45a7.5 7.5 0 1 0 10.606 0 7.508 7.508 0 0 0-10.606 0Zm6.054 224.193a153.215 153.215 0 0 1-142.54-126.865l29.025-3.564a12.212 12.212 0 0 0 6.03-21.743l-72.713-56.81a12.211 12.211 0 0 0-17.14 2.104L2.601 340.726a12.211 12.211 0 0 0 11.11 19.638l29.48-3.62a168.209 168.209 0 0 0 165.552 140.26 170.251 170.251 0 0 0 49.807-7.455 7.5 7.5 0 0 0-1.8-14.66Zm-140.422-24.137a152.288 152.288 0 0 1-58.734-98.94 12.132 12.132 0 0 0-12.023-10.38 12.525 12.525 0 0 0-1.531.095l-25.475 3.127 50.95-65.21 65.21 50.949-25.213 3.095a12.22 12.22 0 0 0-10.59 13.973l-.001-.001a168.163 168.163 0 0 0 114.453 134.473 152.217 152.217 0 0 1-97.046-31.181ZM383.5 255A128.5 128.5 0 1 0 512 383.5 128.645 128.645 0 0 0 383.5 255Zm0 242A113.5 113.5 0 1 1 497 383.5 113.629 113.629 0 0 1 383.5 497ZM218.877 282.516a7.5 7.5 0 1 0 10.606 0 7.508 7.508 0 0 0-10.606 0ZM128.5 257A128.5 128.5 0 1 0 0 128.5 128.645 128.645 0 0 0 128.5 257Zm0-242A113.5 113.5 0 1 1 15 128.5 113.629 113.629 0 0 1 128.5 15Z"></path>
</svg>
